<svg xmlns="http://www.w3.org/2000/svg" viewBox="0 0 222.03 40.35"><defs><style>.cls-1{fill:#cc1517;}</style></defs><g id="Capa_2" data-name="Capa 2"><g id="Capa_1-2" data-name="Capa 1"><path class="cls-1" d="M19,29.29c-.37-3.48-1.52-5.87-4.32-6.67v-.1c2.27-1.36,3.16-3.67,2.79-7.11-.11-1.05-.17-1.58-.28-2.63C16.64,7.63,13.93,5.35,8.26,6,5,6.4,3.3,6.6,0,7Q2.1,23.69,4.21,40.35l5.27-.65c-.66-5.43-1-8.15-1.64-13.58l1.85-.22c2.43-.29,3.64.74,4,3.84.24,2.1.36,3.15.59,5.25a10.34,10.34,0,0,0,1,4l5.37-.59a9.93,9.93,0,0,1-1-4ZM9.38,21.1l-2.11.25C6.78,17.25,6.53,15.2,6,11.11l2.62-.32c1.94-.22,2.9.73,3.17,3.12.15,1.32.22,2,.37,3.29C12.51,19.87,11.38,20.87,9.38,21.1Z"/><path class="cls-1" d="M28.27,32.83,27.32,23c2.94-.29,4.42-.42,7.36-.68-.17-1.92-.25-2.87-.42-4.79-3,.27-4.44.4-7.41.69L26,8.94c3.76-.36,5.65-.53,9.42-.86C35.2,6.17,35.12,5.21,35,3.3c-6,.51-9,.8-15,1.42q1.74,16.71,3.46,33.42c5.75-.59,8.63-.87,14.39-1.36-.17-1.92-.25-2.87-.42-4.79C33.77,32.31,31.93,32.48,28.27,32.83Z"/><path class="cls-1" d="M50.82,2.07c.55,8,.82,12,1.37,20.07H52.1C49.38,14.27,48,10.33,45.18,2.47c-2.75.21-4.13.32-6.88.55L41.06,36.5l4.75-.37c-.74-9.71-1.12-14.56-1.86-24.27H44c3.42,9.5,5.09,14.26,8.35,23.79,2.17-.15,3.26-.22,5.43-.35Q56.77,18.52,55.71,1.75Z"/><path class="cls-1" d="M75.05.75c-6.8.27-10.2.45-17,.86.11,1.91.17,2.87.29,4.79,2.28-.14,3.42-.21,5.71-.33q.76,14.38,1.54,28.76l5.29-.26Q70.22,20.19,69.53,5.8l5.71-.26C75.16,3.62,75.12,2.66,75.05.75Z"/><path class="cls-1" d="M79.69.57q-2.16,16.89-4.18,33.79l4.85-.19.7-6.13,6.54-.2c.44,2.42.66,3.64,1.09,6.07,2.13-.06,3.2-.09,5.34-.13Q91,17,87.74.32C84.52.4,82.91.45,79.69.57Zm1.89,22.89c.78-6.83,1.18-10.24,2-17.07h.1c1.25,6.76,1.86,10.14,3.07,16.91Z"/><path class="cls-1" d="M101.72,28.86,101.39.06c-2.2,0-3.3,0-5.5.08q.3,16.8.59,33.59c5.6-.09,8.4-.12,14-.13V28.8C107,28.81,105.22,28.82,101.72,28.86Z"/><path class="cls-1" d="M124.19,24h-.1C122.68,14.38,122,9.6,120.44,0c-3.06,0-4.59,0-7.65,0q0,16.8-.05,33.6l4.62,0c.06-9.5.1-14.25.16-23.76h.1c1.52,9.52,2.26,14.28,3.69,23.8l5,.07c1.59-9.61,2.41-14.42,4.08-24h.1c-.21,9.64-.31,14.45-.52,24.09l5,.12L135.89.33c-3.06-.08-4.59-.12-7.65-.17C126.58,9.67,125.77,14.43,124.19,24Z"/><path class="cls-1" d="M147.8.36c-5.4-.22-8.45,2.77-8.61,8.14L138.64,26c-.17,5.38,2.57,8.53,7.76,8.74s8.18-2.7,8.45-8.07c.35-7,.53-10.47.88-17.46C156,3.8,153.2.58,147.8.36Zm1.7,26.35c-.11,2.4-1.21,3.26-2.9,3.19s-2.73-1-2.64-3.42c.28-7.25.41-10.88.69-18.13.09-2.4,1.22-3.27,3-3.2s2.79,1,2.68,3.43C150,15.83,149.82,19.46,149.5,26.71Z"/><path class="cls-1" d="M172.11,2.07c-2.4,10.82-3.58,16.24-5.88,27.08h-.1c-.91-11-1.39-16.56-2.41-27.61l-5.54-.31q1.77,16.92,3.43,33.85c3.15.19,4.72.29,7.87.5Q173.26,19,177.15,2.43C175.14,2.28,174.13,2.2,172.11,2.07Z"/><path class="cls-1" d="M177.12,36.12l5.28.42q1.4-16.74,2.78-33.48c-2.19-.19-3.29-.27-5.48-.44Z"/><path class="cls-1" d="M203.62,9.61l.5-4.77c-6-.63-9-.92-15-1.44q-1.47,16.74-2.93,33.47c5.76.51,8.63.78,14.38,1.39l.5-4.78c-3.66-.38-5.49-.56-9.16-.91.37-3.92.56-5.88.92-9.8,3,.28,4.42.43,7.37.73.19-1.91.29-2.87.49-4.78-3-.3-4.45-.45-7.41-.73.35-3.72.53-5.59.88-9.32C198,9,199.86,9.22,203.62,9.61Z"/><path class="cls-1" d="M214.92,5.65c-5.33-.63-8.4,2.14-9,7.49-.41,3.82.73,6.74,4.77,11.11,3.15,3.4,4,5.35,3.71,7.78S213,35.14,211.3,35s-2.65-1.18-2.38-3.56c.11-1,.16-1.43.27-2.39l-5-.56c-.09.83-.13,1.24-.22,2.06-.58,5.34,1.78,8.67,6.95,9.28s8.23-2.1,8.9-7.43c.48-3.81-.56-6.77-4.6-11.16-3.15-3.42-4.05-5.35-3.77-7.78s1.37-3.18,3.1-3,2.61,1.23,2.33,3.61c-.07.56-.1.83-.17,1.39,2.05.24,3.07.37,5.12.63l.13-1C222.59,9.67,220.24,6.27,214.92,5.65Z"/></g></g></svg>